<svg width="142" height="43" viewBox="0 0 142 43" fill="none" xmlns="http://www.w3.org/2000/svg">
<rect x="0.499512" y="0.5" width="141.229" height="42.5" rx="12.5" fill="#2DBDB1"/>
<path d="M49.1033 28.3193C50.7952 29.1543 52.6079 29.5718 54.5415 29.5718C56.9219 29.5718 58.1121 28.4878 58.1121 26.3198C58.1121 25.6167 57.9216 25.0491 57.5408 24.6169C57.1672 24.1775 56.4824 23.8333 55.4863 23.5842L52.2563 22.7712C49.7881 22.1487 48.554 20.8303 48.554 18.8162C48.554 17.2708 49.085 16.1245 50.147 15.3774C51.209 14.623 52.6775 14.2458 54.5525 14.2458C55.5339 14.2458 56.4531 14.3521 57.3101 14.5645C58.167 14.7769 58.8848 15.0625 59.4634 15.4214L58.9141 16.9705C58.4233 16.6995 57.7715 16.4578 56.9585 16.2454C56.1528 16.033 55.3362 15.9268 54.5085 15.9268C51.8572 15.9268 50.5315 16.8459 50.5315 18.6843C50.5315 19.3069 50.7329 19.8086 51.1357 20.1895C51.5459 20.563 52.1575 20.8486 52.9705 21.0464L56.0576 21.7935C57.376 22.1084 58.3757 22.6138 59.0569 23.3096C59.738 23.998 60.0786 24.9795 60.0786 26.2539C60.0786 27.9092 59.5696 29.158 58.5515 30.0002C57.5408 30.8352 56.1638 31.2527 54.4207 31.2527C53.1169 31.2527 51.9561 31.1208 50.938 30.8572C49.9272 30.5862 49.1252 30.2676 48.532 29.9014L49.1033 28.3193ZM66.0442 29.7695C66.9158 29.7695 67.6812 29.5315 68.3403 29.0554C69.0068 28.572 69.4353 27.9238 69.6257 27.1108V25.0784C69.5891 25.0784 69.3657 25.0967 68.9556 25.1333C68.5527 25.1699 68.2891 25.1919 68.1646 25.1992C66.5752 25.3384 65.4656 25.5984 64.8357 25.9792C64.2131 26.3601 63.9019 26.9717 63.9019 27.814C63.9019 28.4585 64.0923 28.9456 64.4731 29.2751C64.854 29.6047 65.3777 29.7695 66.0442 29.7695ZM70.0322 31C69.9224 30.5312 69.8162 30.0259 69.7136 29.4839C69.0471 30.1504 68.4209 30.6118 67.835 30.8682C67.249 31.1245 66.5605 31.2527 65.7695 31.2527C64.6416 31.2527 63.7334 30.9597 63.0449 30.3738C62.3638 29.7805 62.0232 28.9309 62.0232 27.825C62.0232 26.5945 62.4883 25.6826 63.4185 25.0894C64.356 24.4961 65.7036 24.1262 67.4614 23.9797C67.7031 23.9578 68.0657 23.9285 68.5491 23.8918C69.0398 23.8479 69.406 23.8149 69.6477 23.793V22.7273C69.6477 21.8777 69.45 21.2478 69.0544 20.8376C68.6589 20.4275 68.0364 20.2224 67.1868 20.2224C66.0002 20.2224 64.8027 20.5154 63.5942 21.1013C63.5576 21.0134 63.4624 20.7607 63.3086 20.3433C63.1548 19.9185 63.0742 19.6987 63.0669 19.6841C63.6016 19.3838 64.2351 19.1458 64.9675 18.97C65.7073 18.7869 66.458 18.6953 67.2197 18.6953C68.7212 18.6953 69.8015 19.0249 70.4607 19.6841C71.1272 20.3359 71.4604 21.4492 71.4604 23.0239V31H70.0322ZM77.7117 31L73.0425 18.948H75.009L77.6677 26.1111C77.6677 26.1111 78.0339 27.1292 78.7664 29.1653C79.0154 28.3816 79.3596 27.3708 79.7991 26.1331C80.3557 24.573 81.22 22.178 82.3918 18.948H84.3474L79.7112 31H77.7117ZM92.752 21.1782C92.2173 20.5337 91.4812 20.2114 90.5437 20.2114C89.6062 20.2114 88.8408 20.5447 88.2476 21.2112C87.6543 21.8704 87.3064 22.7749 87.2039 23.9248H93.5649C93.5649 22.731 93.2939 21.8154 92.752 21.1782ZM90.9062 31.2527C89.1558 31.2527 87.7751 30.696 86.7644 29.5828C85.761 28.4695 85.2593 26.946 85.2593 25.0125C85.2593 23.1448 85.7463 21.6323 86.7205 20.4751C87.6946 19.3105 88.9763 18.7173 90.5657 18.6953C92.0598 18.6953 93.2427 19.208 94.1143 20.2334C94.9932 21.2515 95.4326 22.6138 95.4326 24.3203C95.4326 24.4082 95.429 24.5693 95.4216 24.8037C95.4216 25.0381 95.4216 25.2065 95.4216 25.3091H87.1489C87.1709 26.6787 87.5225 27.748 88.2036 28.5171C88.8921 29.2788 89.8149 29.6597 90.9722 29.6597C92.2466 29.6597 93.5247 29.3228 94.8064 28.6489L95.092 30.1321C93.8689 30.8792 92.4736 31.2527 90.9062 31.2527Z" fill="white"/>
</svg>
